<?xml version="1.0" encoding="UTF-8"?>
<svg xmlns="http://www.w3.org/2000/svg" xmlns:xlink="http://www.w3.org/1999/xlink" width="35px" height="35px" viewBox="0 0 35 35" version="1.1">
<g id="surface1">
<path style=" stroke:none;fill-rule:nonzero;fill:rgb(1.568627%,1.960784%,1.960784%);fill-opacity:1;" d="M 13.6875 4.933594 C 12.574219 8.597656 13.117188 12.566406 15.171875 15.800781 C 17.230469 19.03125 20.597656 21.203125 24.390625 21.746094 C 25.007812 21.832031 25.628906 21.875 26.25 21.875 C 27.542969 21.875 28.828125 21.6875 30.066406 21.3125 C 28.542969 26.246094 24.289062 29.839844 19.171875 30.523438 C 18.617188 30.589844 18.058594 30.625 17.5 30.625 C 10.984375 30.640625 5.445312 25.871094 4.488281 19.425781 C 3.53125 12.980469 7.449219 6.808594 13.6875 4.933594 M 17.5 0 C 16.691406 0 15.882812 0.0546875 15.082031 0.164062 C 5.960938 1.421875 -0.625 9.527344 0.0117188 18.710938 C 0.652344 27.894531 8.292969 35.015625 17.5 35 C 18.234375 35 18.96875 34.953125 19.699219 34.867188 C 27.535156 33.859375 33.730469 27.742188 34.835938 19.917969 C 34.949219 19.097656 35.003906 18.269531 35 17.4375 C 34.996094 16.867188 34.761719 16.316406 34.351562 15.917969 C 33.941406 15.519531 33.386719 15.300781 32.8125 15.3125 C 32.328125 15.3125 31.855469 15.472656 31.46875 15.765625 C 29.960938 16.890625 28.132812 17.5 26.25 17.5 C 25.828125 17.5 25.410156 17.46875 24.992188 17.414062 C 21.9375 16.972656 19.34375 14.957031 18.160156 12.105469 C 16.980469 9.253906 17.386719 5.992188 19.234375 3.523438 C 19.6875 2.859375 19.753906 2.003906 19.410156 1.28125 C 19.066406 0.554688 18.359375 0.0664062 17.5625 0 Z M 17.5 0 "/>
</g>
</svg>
